<svg xmlns="http://www.w3.org/2000/svg" width="1439.98" height="400" viewBox="0 0 1439.98 400">
  <g id="sendgrid_logo" transform="translate(-6 -15)">
    <path id="Path_2444" data-name="Path 2444" d="M40.986,173.618l30.662-24.129a43.718,43.718,0,0,0,38.4,23.7c17.169,0,26.573-11.04,26.573-23.3,0-14.717-17.573-19.2-36.8-24.931-23.7-7.358-50.26-16.344-50.26-50.688,0-28.613,24.931-51.086,58.862-51.086A75.9,75.9,0,0,1,168.1,48.939l-27.778,21.25a35.457,35.457,0,0,0-31.464-16.757c-15.945,0-24.129,8.587-24.129,19.622,0,13.493,17.169,18.4,35.971,24.533,24.129,7.771,51.086,18.4,51.086,52.32,0,28.209-22.478,55.2-61.324,55.2a85.982,85.982,0,0,1-69.489-31.473ZM312.823,81.656h33.12V95.149A42.1,42.1,0,0,1,379.46,79.2c28.608,0,45.782,18.4,45.782,49.862v73.991h-33.93V133.572c0-16.344-7.358-25.757-22.478-25.757-12.667,0-22.891,8.587-22.891,29.025v66.239H312.784Zm120.172,60.9c0-42.931,31.464-63.359,58.862-63.359a48.892,48.892,0,0,1,36.4,14.3V25.65h33.12V203.042h-33.12V189.55a47.788,47.788,0,0,1-36.8,15.945c-25.757,0-58.449-20.438-58.449-62.951Zm96.057-.4a31.421,31.421,0,0,0-31.065-32.7,32.7,32.7,0,0,0,0,65.409,31.43,31.43,0,0,0,31.065-32.712Zm40.051-27.8a89.1,89.1,0,0,1,90.719-91.151A91.679,91.679,0,0,1,724,47.739,89.282,89.282,0,0,1,740.346,68.59l-29.424,18a54.638,54.638,0,0,0-50.687-30.662,57.657,57.657,0,0,0-57.22,58.449,57.177,57.177,0,0,0,58.449,58.449c25.756,0,44.126-14.717,50.26-37.329H656.159V103.2h91.982v13.5c0,47.409-33.931,88.7-86.659,88.7-55.593,0-92.39-42.1-92.39-91.151Zm187.2-32.7h32.942v20.025a34.512,34.512,0,0,1,33.518-20.025h13.493L823.99,113.945h-9c-17.573,0-25.329,9.4-25.329,31.862v57.22H756.142Zm88.7,0h33.12v121.4H845V113.945H832.735Zm16.757-18.4.019.024Zm24.533,79.3c0-42.931,31.464-63.359,58.862-63.359a48.912,48.912,0,0,1,36.4,14.3V25.65h33.12V203.042h-33.12V189.55a47.788,47.788,0,0,1-36.8,15.945C919,205.5,886.3,185.057,886.3,142.544Zm96.057-.4a31.421,31.421,0,0,0-31.065-32.7,32.7,32.7,0,0,0,0,65.409,31.43,31.43,0,0,0,31.1-32.712Zm-677.3,0c0-35.155-25.329-62.951-62.524-62.951a63.148,63.148,0,0,0-63.359,63.359,62.1,62.1,0,0,0,64.18,63.36,61.958,61.958,0,0,0,55.593-30.662l-26.549-15.984a32.64,32.64,0,0,1-29.025,17.573c-17.573,0-28.613-8.587-32.289-22.08h93.6v-12.64Zm-92.375-14.721a31.68,31.68,0,0,1,29.837-19.2,28.574,28.574,0,0,1,29.025,19.2Z" transform="translate(431.306 100.435)" fill="#263746"/>
    <path id="Path_2445" data-name="Path 2445" d="M6,24.96H139.564V158.543H6Z" transform="translate(0 122.841)" fill="#fff"/>
    <path id="Path_2446" data-name="Path 2446" d="M6,24.96H139.564V158.543H6Z" transform="translate(0 122.841)" fill="#99e1f4"/>
    <path id="Path_2447" data-name="Path 2447" d="M16.016,34.98H148.841V167.8H16.016Z" transform="translate(123.548 246.408)" fill="#fff"/>
    <path id="Path_2448" data-name="Path 2448" d="M16.016,34.98H148.841V167.8H16.016Z" transform="translate(123.548 246.408)" fill="#99e1f4"/>
    <path id="Path_2449" data-name="Path 2449" d="M6,167.819H139.564v.773H6ZM6,34.98H139.564V167.8H6Z" transform="translate(0 246.408)" fill="#1a82e2"/>
    <path id="Path_2450" data-name="Path 2450" d="M16.016,15H148.841V147.815H16.016ZM148.855,148.6H282.438V281.427H148.855Z" transform="translate(123.548)" fill="#00b3e3"/>
    <path id="Path_2451" data-name="Path 2451" d="M148.842,158.548V24.96H16.017V158.543Z" transform="translate(123.561 122.841)" fill="#009dd9"/>
    <path id="Path_2452" data-name="Path 2452" d="M25.98,15H159.563V147.815H25.98Z" transform="translate(246.423)" fill="#1a82e2"/>
    <path id="Path_2453" data-name="Path 2453" d="M25.98,24.96H159.563v.773H25.98Z" transform="translate(246.423 122.842)" fill="#1a82e2"/>
  </g>
</svg>
